<svg xmlns="http://www.w3.org/2000/svg" width="524" height="82" viewBox="0 0 524 82"><path fill="#7C89A6" d="M216.8 37.7v21.8h-7.6V38.2c0-4.8-2.6-7.7-6.8-7.7-4.7 0-7.7 3.1-7.7 9.3v19.7h-7.6V38.2c0-4.8-2.4-7.7-6.6-7.7-4.6 0-7.8 3.2-7.8 9.3v19.7h-7.6V24.3h7.6v4.2c2.2-3.4 5.6-5.1 10.1-5.1 4.1-.2 8.1 1.9 10 5.6 2.3-3.7 5.9-5.6 10.7-5.6 8 0 13.3 5.6 13.3 14.3m11.3 17.4c-3.5-3.4-5.5-8.2-5.4-13.1 0-10.3 8.3-18.6 18.6-18.6 10.2 0 18.6 8.3 18.6 18.6-.1 10.3-8.5 18.6-18.8 18.5-5-.1-9.6-2.1-13-5.4m13.1-2c2.9.1 5.7-1.1 7.8-3.2 2.1-2.1 3.2-5 3.2-7.9.1-3-1.1-5.8-3.2-7.9-4.3-4.2-11.3-4.2-15.6 0-2.1 2.1-3.2 5-3.2 7.9-.1 3 1.1 5.8 3.2 7.9 2.1 2.1 4.9 3.2 7.8 3.2m52.9-42.8h7.6v49.2h-7.6v-5.1c-2.9 4-7 6-12.3 6-4.7.1-9.2-1.9-12.4-5.3-3.4-3.5-5.2-8.3-5.1-13.1-.1-4.9 1.7-9.6 5.1-13.1 3.2-3.5 7.7-5.4 12.4-5.3 5.3 0 9.4 2 12.3 5.9V10.3zM283 53.2c3 .1 5.8-1.1 7.9-3.2 2.1-2.2 3.2-5.1 3.2-8.1.1-3-1.1-5.9-3.2-8-4.4-4.3-11.5-4.3-15.9 0-2.1 2.1-3.3 5-3.2 8-.1 3 1.1 5.9 3.2 8.1 2.2 2.1 5.1 3.2 8 3.2m50.9-28.9h7.6v35.2h-7.6V55c-2.3 3.6-5.9 5.4-10.9 5.4-8.1 0-13.5-5.5-13.5-14.5V24.3h7.6v20.8c0 5.3 3 8.2 7.9 8.2 5.3 0 8.9-3.3 8.9-10.1V24.3zm67.7 13.4v21.8H394V38.2c0-4.8-2.6-7.7-6.8-7.7-4.7 0-7.7 3.1-7.7 9.3v19.7H372V38.2c0-4.8-2.4-7.7-6.6-7.7-4.6 0-7.8 3.2-7.8 9.3v19.7H350V24.3h7.6v4.2c2.2-3.4 5.6-5.1 10.1-5.1 4.1-.2 8.1 1.9 10 5.6 2.3-3.7 5.9-5.6 10.7-5.6 7.9 0 13.2 5.6 13.2 14.3m25-29.6h7.6v51.3h-7.6V8.1zm43.6 16.2h7.6v35.2h-7.6v-5.1c-2.9 4-7 6-12.3 6-4.7.1-9.2-1.9-12.4-5.4-3.4-3.5-5.2-8.3-5.1-13.1-.1-4.9 1.7-9.6 5.1-13.1 3.2-3.5 7.7-5.4 12.4-5.3 5.3 0 9.4 2 12.3 5.9v-5.1zm-11.1 28.9c3 .1 5.8-1.1 7.9-3.2 2.1-2.2 3.2-5.1 3.2-8.1.1-3-1.1-5.9-3.2-8-4.4-4.3-11.5-4.3-15.9 0-2.1 2.1-3.2 5-3.2 8-.1 3 1.1 5.9 3.2 8.1 2.2 2.1 5.1 3.2 8 3.2m59.8-24.4c3.4 3.5 5.3 8.3 5.1 13.1.1 4.9-1.7 9.6-5.1 13.1-3.2 3.5-7.7 5.4-12.3 5.3-5.3 0-9.4-2-12.3-6v5.1h-7.6V10.3h7.6v19.1c2.9-3.9 7-5.9 12.3-5.9 4.6-.2 9.1 1.8 12.3 5.3m-13.6 24.4c3 .1 5.8-1.1 7.9-3.2 2.1-2.2 3.2-5.1 3.2-8.1.1-3-1.1-5.9-3.2-8-4.4-4.3-11.5-4.3-15.9 0-2.1 2.1-3.2 5-3.2 8-.1 3 1.1 5.9 3.2 8.1 2.2 2.1 5 3.2 8 3.2"/><linearGradient id="a" gradientUnits="userSpaceOnUse" x1="201.681" y1="74.717" x2="204.734" y2="70.208" gradientTransform="matrix(12.4606 0 0 -10.6275 -2448.98 823.06)"><stop offset="0" stop-color="#2433b6"/><stop offset=".5" stop-color="#2d67d2"/><stop offset=".63" stop-color="#2f70d6"/><stop offset=".84" stop-color="#3587e2"/><stop offset="1" stop-color="#3b9eed"/></linearGradient><path fill="url(#a)" d="M96.54 64.2l20.5 16.99c1.46 1.23 3.64 1.03 4.87-.43.67-.8.95-1.87.74-2.9L108.02 3.1c-.62-3.15-3.14-4.05-5.61-2L26.57 63.89c3.77-3.13 7.84-5.89 12.15-8.24 19.26-10.36 38.42-7.5 57.82 8.55z"/><linearGradient id="b" gradientUnits="userSpaceOnUse" x1="194.644" y1="74.509" x2="200.138" y2="72.013" gradientTransform="matrix(10.9077 0 0 -10.623 -2120.095 822.73)"><stop offset="0" stop-color="#2b8ded"/><stop offset=".08" stop-color="#359cf0"/><stop offset=".36" stop-color="#54ccf9"/><stop offset=".5" stop-color="#60defd"/><stop offset=".6" stop-color="#72e2fd"/><stop offset=".79" stop-color="#a2eeff"/><stop offset=".85" stop-color="#b2f2ff"/></linearGradient><path fill="url(#b)" d="M66.62 25.24c-9.16 1.75-18.33-1.25-28.06-9.04C34.68 13.11 25.74 5.67 20.3 1.13c-2.47-2.06-5-1.16-5.61 2L.07 77.85c-.37 1.87.84 3.69 2.71 4.07 1.02.2 2.08-.06 2.88-.73l78.5-64.98c-5.93 4.91-11.74 7.93-17.54 9"/></svg>